

<svg xmlns="http://www.w3.org/2000/svg" version="1.1" viewBox="0 0 800 800" width="800" height="800" stroke="#333" stroke-width="1.5" class="absolute w-full stroke-accent/80 opacity-40 [mask-image:radial-gradient(15%_20%_at_center_center,white,transparent)]"><g fill="none"><rect width="44.44444444444444" height="44.44444444444444" x="0" y="0"></rect><rect width="44.44444444444444" height="44.44444444444444" x="44.44444444444444" y="0"></rect><rect width="44.44444444444444" height="44.44444444444444" x="88.88888888888889" y="0"></rect><rect width="44.44444444444444" height="44.44444444444444" x="133.33333333333331" y="0"></rect><rect width="44.44444444444444" height="44.44444444444444" x="177.77777777777777" y="0"></rect><rect width="44.44444444444444" height="44.44444444444444" x="222.22222222222223" y="0"></rect><rect width="44.44444444444444" height="44.44444444444444" x="266.6666666666667" y="0"></rect><rect width="44.44444444444444" height="44.44444444444444" x="311.11111111111114" y="0"></rect><rect width="44.44444444444444" height="44.44444444444444" x="355.5555555555556" y="0"></rect><rect width="44.44444444444444" height="44.44444444444444" x="400.00000000000006" y="0"></rect><rect width="44.44444444444444" height="44.44444444444444" x="444.4444444444445" y="0"></rect><rect width="44.44444444444444" height="44.44444444444444" x="488.88888888888897" y="0"></rect><rect width="44.44444444444444" height="44.44444444444444" x="533.3333333333334" y="0"></rect><rect width="44.44444444444444" height="44.44444444444444" x="577.7777777777778" y="0"></rect><rect width="44.44444444444444" height="44.44444444444444" x="622.2222222222223" y="0"></rect><rect width="44.44444444444444" height="44.44444444444444" x="666.6666666666667" y="0"></rect><rect width="44.44444444444444" height="44.44444444444444" x="711.1111111111112" y="0"></rect><rect width="44.44444444444444" height="44.44444444444444" x="755.5555555555557" y="0"></rect><rect width="44.44444444444444" height="44.44444444444444" x="800.0000000000001" y="0"></rect><rect width="44.44444444444444" height="44.44444444444444" x="0" y="44.44444444444444"></rect><rect width="44.44444444444444" height="44.44444444444444" x="44.44444444444444" y="44.44444444444444"></rect><rect width="44.44444444444444" height="44.44444444444444" x="88.88888888888889" y="44.44444444444444"></rect><rect width="44.44444444444444" height="44.44444444444444" x="133.33333333333331" y="44.44444444444444"></rect><rect width="44.44444444444444" height="44.44444444444444" x="177.77777777777777" y="44.44444444444444"></rect><rect width="44.44444444444444" height="44.44444444444444" x="222.22222222222223" y="44.44444444444444"></rect><rect width="44.44444444444444" height="44.44444444444444" x="266.6666666666667" y="44.44444444444444"></rect><rect width="44.44444444444444" height="44.44444444444444" x="311.11111111111114" y="44.44444444444444"></rect><rect width="44.44444444444444" height="44.44444444444444" x="355.5555555555556" y="44.44444444444444"></rect><rect width="44.44444444444444" height="44.44444444444444" x="400.00000000000006" y="44.44444444444444"></rect><rect width="44.44444444444444" height="44.44444444444444" x="444.4444444444445" y="44.44444444444444"></rect><rect width="44.44444444444444" height="44.44444444444444" x="488.88888888888897" y="44.44444444444444"></rect><rect width="44.44444444444444" height="44.44444444444444" x="533.3333333333334" y="44.44444444444444"></rect><rect width="44.44444444444444" height="44.44444444444444" x="577.7777777777778" y="44.44444444444444"></rect><rect width="44.44444444444444" height="44.44444444444444" x="622.2222222222223" y="44.44444444444444"></rect><rect width="44.44444444444444" height="44.44444444444444" x="666.6666666666667" y="44.44444444444444"></rect><rect width="44.44444444444444" height="44.44444444444444" x="711.1111111111112" y="44.44444444444444"></rect><rect width="44.44444444444444" height="44.44444444444444" x="755.5555555555557" y="44.44444444444444"></rect><rect width="44.44444444444444" height="44.44444444444444" x="800.0000000000001" y="44.44444444444444"></rect><rect width="44.44444444444444" height="44.44444444444444" x="0" y="88.88888888888889"></rect><rect width="44.44444444444444" height="44.44444444444444" x="44.44444444444444" y="88.88888888888889"></rect><rect width="44.44444444444444" height="44.44444444444444" x="88.88888888888889" y="88.88888888888889"></rect><rect width="44.44444444444444" height="44.44444444444444" x="133.33333333333331" y="88.88888888888889"></rect><rect width="44.44444444444444" height="44.44444444444444" x="177.77777777777777" y="88.88888888888889"></rect><rect width="44.44444444444444" height="44.44444444444444" x="222.22222222222223" y="88.88888888888889"></rect><rect width="44.44444444444444" height="44.44444444444444" x="266.6666666666667" y="88.88888888888889"></rect><rect width="44.44444444444444" height="44.44444444444444" x="311.11111111111114" y="88.88888888888889"></rect><rect width="44.44444444444444" height="44.44444444444444" x="355.5555555555556" y="88.88888888888889"></rect><rect width="44.44444444444444" height="44.44444444444444" x="400.00000000000006" y="88.88888888888889"></rect><rect width="44.44444444444444" height="44.44444444444444" x="444.4444444444445" y="88.88888888888889"></rect><rect width="44.44444444444444" height="44.44444444444444" x="488.88888888888897" y="88.88888888888889"></rect><rect width="44.44444444444444" height="44.44444444444444" x="533.3333333333334" y="88.88888888888889"></rect><rect width="44.44444444444444" height="44.44444444444444" x="577.7777777777778" y="88.88888888888889"></rect><rect width="44.44444444444444" height="44.44444444444444" x="622.2222222222223" y="88.88888888888889"></rect><rect width="44.44444444444444" height="44.44444444444444" x="666.6666666666667" y="88.88888888888889"></rect><rect width="44.44444444444444" height="44.44444444444444" x="711.1111111111112" y="88.88888888888889"></rect><rect width="44.44444444444444" height="44.44444444444444" x="755.5555555555557" y="88.88888888888889"></rect><rect width="44.44444444444444" height="44.44444444444444" x="800.0000000000001" y="88.88888888888889"></rect><rect width="44.44444444444444" height="44.44444444444444" x="0" y="133.33333333333331"></rect><rect width="44.44444444444444" height="44.44444444444444" x="44.44444444444444" y="133.33333333333331"></rect><rect width="44.44444444444444" height="44.44444444444444" x="88.88888888888889" y="133.33333333333331"></rect><rect width="44.44444444444444" height="44.44444444444444" x="133.33333333333331" y="133.33333333333331"></rect><rect width="44.44444444444444" height="44.44444444444444" x="177.77777777777777" y="133.33333333333331"></rect><rect width="44.44444444444444" height="44.44444444444444" x="222.22222222222223" y="133.33333333333331"></rect><rect width="44.44444444444444" height="44.44444444444444" x="266.6666666666667" y="133.33333333333331"></rect><rect width="44.44444444444444" height="44.44444444444444" x="311.11111111111114" y="133.33333333333331"></rect><rect width="44.44444444444444" height="44.44444444444444" x="355.5555555555556" y="133.33333333333331"></rect><rect width="44.44444444444444" height="44.44444444444444" x="400.00000000000006" y="133.33333333333331"></rect><rect width="44.44444444444444" height="44.44444444444444" x="444.4444444444445" y="133.33333333333331"></rect><rect width="44.44444444444444" height="44.44444444444444" x="488.88888888888897" y="133.33333333333331"></rect><rect width="44.44444444444444" height="44.44444444444444" x="533.3333333333334" y="133.33333333333331"></rect><rect width="44.44444444444444" height="44.44444444444444" x="577.7777777777778" y="133.33333333333331"></rect><rect width="44.44444444444444" height="44.44444444444444" x="622.2222222222223" y="133.33333333333331"></rect><rect width="44.44444444444444" height="44.44444444444444" x="666.6666666666667" y="133.33333333333331"></rect><rect width="44.44444444444444" height="44.44444444444444" x="711.1111111111112" y="133.33333333333331"></rect><rect width="44.44444444444444" height="44.44444444444444" x="755.5555555555557" y="133.33333333333331"></rect><rect width="44.44444444444444" height="44.44444444444444" x="800.0000000000001" y="133.33333333333331"></rect><rect width="44.44444444444444" height="44.44444444444444" x="0" y="177.77777777777777"></rect><rect width="44.44444444444444" height="44.44444444444444" x="44.44444444444444" y="177.77777777777777"></rect><rect width="44.44444444444444" height="44.44444444444444" x="88.88888888888889" y="177.77777777777777"></rect><rect width="44.44444444444444" height="44.44444444444444" x="133.33333333333331" y="177.77777777777777"></rect><rect width="44.44444444444444" height="44.44444444444444" x="177.77777777777777" y="177.77777777777777"></rect><rect width="44.44444444444444" height="44.44444444444444" x="222.22222222222223" y="177.77777777777777"></rect><rect width="44.44444444444444" height="44.44444444444444" x="266.6666666666667" y="177.77777777777777"></rect><rect width="44.44444444444444" height="44.44444444444444" x="311.11111111111114" y="177.77777777777777"></rect><rect width="44.44444444444444" height="44.44444444444444" x="355.5555555555556" y="177.77777777777777"></rect><rect width="44.44444444444444" height="44.44444444444444" x="400.00000000000006" y="177.77777777777777"></rect><rect width="44.44444444444444" height="44.44444444444444" x="444.4444444444445" y="177.77777777777777"></rect><rect width="44.44444444444444" height="44.44444444444444" x="488.88888888888897" y="177.77777777777777"></rect><rect width="44.44444444444444" height="44.44444444444444" x="533.3333333333334" y="177.77777777777777"></rect><rect width="44.44444444444444" height="44.44444444444444" x="577.7777777777778" y="177.77777777777777"></rect><rect width="44.44444444444444" height="44.44444444444444" x="622.2222222222223" y="177.77777777777777"></rect><rect width="44.44444444444444" height="44.44444444444444" x="666.6666666666667" y="177.77777777777777"></rect><rect width="44.44444444444444" height="44.44444444444444" x="711.1111111111112" y="177.77777777777777"></rect><rect width="44.44444444444444" height="44.44444444444444" x="755.5555555555557" y="177.77777777777777"></rect><rect width="44.44444444444444" height="44.44444444444444" x="800.0000000000001" y="177.77777777777777"></rect><rect width="44.44444444444444" height="44.44444444444444" x="0" y="222.22222222222223"></rect><rect width="44.44444444444444" height="44.44444444444444" x="44.44444444444444" y="222.22222222222223"></rect><rect width="44.44444444444444" height="44.44444444444444" x="88.88888888888889" y="222.22222222222223"></rect><rect width="44.44444444444444" height="44.44444444444444" x="133.33333333333331" y="222.22222222222223"></rect><rect width="44.44444444444444" height="44.44444444444444" x="177.77777777777777" y="222.22222222222223"></rect><rect width="44.44444444444444" height="44.44444444444444" x="222.22222222222223" y="222.22222222222223"></rect><rect width="44.44444444444444" height="44.44444444444444" x="266.6666666666667" y="222.22222222222223"></rect><rect width="44.44444444444444" height="44.44444444444444" x="311.11111111111114" y="222.22222222222223"></rect><rect width="44.44444444444444" height="44.44444444444444" x="355.5555555555556" y="222.22222222222223"></rect><rect width="44.44444444444444" height="44.44444444444444" x="400.00000000000006" y="222.22222222222223"></rect><rect width="44.44444444444444" height="44.44444444444444" x="444.4444444444445" y="222.22222222222223"></rect><rect width="44.44444444444444" height="44.44444444444444" x="488.88888888888897" y="222.22222222222223"></rect><rect width="44.44444444444444" height="44.44444444444444" x="533.3333333333334" y="222.22222222222223"></rect><rect width="44.44444444444444" height="44.44444444444444" x="577.7777777777778" y="222.22222222222223"></rect><rect width="44.44444444444444" height="44.44444444444444" x="622.2222222222223" y="222.22222222222223"></rect><rect width="44.44444444444444" height="44.44444444444444" x="666.6666666666667" y="222.22222222222223"></rect><rect width="44.44444444444444" height="44.44444444444444" x="711.1111111111112" y="222.22222222222223"></rect><rect width="44.44444444444444" height="44.44444444444444" x="755.5555555555557" y="222.22222222222223"></rect><rect width="44.44444444444444" height="44.44444444444444" x="800.0000000000001" y="222.22222222222223"></rect><rect width="44.44444444444444" height="44.44444444444444" x="0" y="266.6666666666667"></rect><rect width="44.44444444444444" height="44.44444444444444" x="44.44444444444444" y="266.6666666666667"></rect><rect width="44.44444444444444" height="44.44444444444444" x="88.88888888888889" y="266.6666666666667"></rect><rect width="44.44444444444444" height="44.44444444444444" x="133.33333333333331" y="266.6666666666667"></rect><rect width="44.44444444444444" height="44.44444444444444" x="177.77777777777777" y="266.6666666666667"></rect><rect width="44.44444444444444" height="44.44444444444444" x="222.22222222222223" y="266.6666666666667"></rect><rect width="44.44444444444444" height="44.44444444444444" x="266.6666666666667" y="266.6666666666667"></rect><rect width="44.44444444444444" height="44.44444444444444" x="311.11111111111114" y="266.6666666666667"></rect><rect width="44.44444444444444" height="44.44444444444444" x="355.5555555555556" y="266.6666666666667"></rect><rect width="44.44444444444444" height="44.44444444444444" x="400.00000000000006" y="266.6666666666667"></rect><rect width="44.44444444444444" height="44.44444444444444" x="444.4444444444445" y="266.6666666666667"></rect><rect width="44.44444444444444" height="44.44444444444444" x="488.88888888888897" y="266.6666666666667"></rect><rect width="44.44444444444444" height="44.44444444444444" x="533.3333333333334" y="266.6666666666667"></rect><rect width="44.44444444444444" height="44.44444444444444" x="577.7777777777778" y="266.6666666666667"></rect><rect width="44.44444444444444" height="44.44444444444444" x="622.2222222222223" y="266.6666666666667"></rect><rect width="44.44444444444444" height="44.44444444444444" x="666.6666666666667" y="266.6666666666667"></rect><rect width="44.44444444444444" height="44.44444444444444" x="711.1111111111112" y="266.6666666666667"></rect><rect width="44.44444444444444" height="44.44444444444444" x="755.5555555555557" y="266.6666666666667"></rect><rect width="44.44444444444444" height="44.44444444444444" x="800.0000000000001" y="266.6666666666667"></rect><rect width="44.44444444444444" height="44.44444444444444" x="0" y="311.11111111111114"></rect><rect width="44.44444444444444" height="44.44444444444444" x="44.44444444444444" y="311.11111111111114"></rect><rect width="44.44444444444444" height="44.44444444444444" x="88.88888888888889" y="311.11111111111114"></rect><rect width="44.44444444444444" height="44.44444444444444" x="133.33333333333331" y="311.11111111111114"></rect><rect width="44.44444444444444" height="44.44444444444444" x="177.77777777777777" y="311.11111111111114"></rect><rect width="44.44444444444444" height="44.44444444444444" x="222.22222222222223" y="311.11111111111114"></rect><rect width="44.44444444444444" height="44.44444444444444" x="266.6666666666667" y="311.11111111111114"></rect><rect width="44.44444444444444" height="44.44444444444444" x="311.11111111111114" y="311.11111111111114"></rect><rect width="44.44444444444444" height="44.44444444444444" x="355.5555555555556" y="311.11111111111114"></rect><rect width="44.44444444444444" height="44.44444444444444" x="400.00000000000006" y="311.11111111111114"></rect><rect width="44.44444444444444" height="44.44444444444444" x="444.4444444444445" y="311.11111111111114"></rect><rect width="44.44444444444444" height="44.44444444444444" x="488.88888888888897" y="311.11111111111114"></rect><rect width="44.44444444444444" height="44.44444444444444" x="533.3333333333334" y="311.11111111111114"></rect><rect width="44.44444444444444" height="44.44444444444444" x="577.7777777777778" y="311.11111111111114"></rect><rect width="44.44444444444444" height="44.44444444444444" x="622.2222222222223" y="311.11111111111114"></rect><rect width="44.44444444444444" height="44.44444444444444" x="666.6666666666667" y="311.11111111111114"></rect><rect width="44.44444444444444" height="44.44444444444444" x="711.1111111111112" y="311.11111111111114"></rect><rect width="44.44444444444444" height="44.44444444444444" x="755.5555555555557" y="311.11111111111114"></rect><rect width="44.44444444444444" height="44.44444444444444" x="800.0000000000001" y="311.11111111111114"></rect><rect width="44.44444444444444" height="44.44444444444444" x="0" y="355.5555555555556"></rect><rect width="44.44444444444444" height="44.44444444444444" x="44.44444444444444" y="355.5555555555556"></rect><rect width="44.44444444444444" height="44.44444444444444" x="88.88888888888889" y="355.5555555555556"></rect><rect width="44.44444444444444" height="44.44444444444444" x="133.33333333333331" y="355.5555555555556"></rect><rect width="44.44444444444444" height="44.44444444444444" x="177.77777777777777" y="355.5555555555556"></rect><rect width="44.44444444444444" height="44.44444444444444" x="222.22222222222223" y="355.5555555555556"></rect><rect width="44.44444444444444" height="44.44444444444444" x="266.6666666666667" y="355.5555555555556"></rect><rect width="44.44444444444444" height="44.44444444444444" x="311.11111111111114" y="355.5555555555556"></rect><rect width="44.44444444444444" height="44.44444444444444" x="355.5555555555556" y="355.5555555555556"></rect><rect width="44.44444444444444" height="44.44444444444444" x="400.00000000000006" y="355.5555555555556"></rect><rect width="44.44444444444444" height="44.44444444444444" x="444.4444444444445" y="355.5555555555556"></rect><rect width="44.44444444444444" height="44.44444444444444" x="488.88888888888897" y="355.5555555555556"></rect><rect width="44.44444444444444" height="44.44444444444444" x="533.3333333333334" y="355.5555555555556"></rect><rect width="44.44444444444444" height="44.44444444444444" x="577.7777777777778" y="355.5555555555556"></rect><rect width="44.44444444444444" height="44.44444444444444" x="622.2222222222223" y="355.5555555555556"></rect><rect width="44.44444444444444" height="44.44444444444444" x="666.6666666666667" y="355.5555555555556"></rect><rect width="44.44444444444444" height="44.44444444444444" x="711.1111111111112" y="355.5555555555556"></rect><rect width="44.44444444444444" height="44.44444444444444" x="755.5555555555557" y="355.5555555555556"></rect><rect width="44.44444444444444" height="44.44444444444444" x="800.0000000000001" y="355.5555555555556"></rect><rect width="44.44444444444444" height="44.44444444444444" x="0" y="400.00000000000006"></rect><rect width="44.44444444444444" height="44.44444444444444" x="44.44444444444444" y="400.00000000000006"></rect><rect width="44.44444444444444" height="44.44444444444444" x="88.88888888888889" y="400.00000000000006"></rect><rect width="44.44444444444444" height="44.44444444444444" x="133.33333333333331" y="400.00000000000006"></rect><rect width="44.44444444444444" height="44.44444444444444" x="177.77777777777777" y="400.00000000000006"></rect><rect width="44.44444444444444" height="44.44444444444444" x="222.22222222222223" y="400.00000000000006"></rect><rect width="44.44444444444444" height="44.44444444444444" x="266.6666666666667" y="400.00000000000006"></rect><rect width="44.44444444444444" height="44.44444444444444" x="311.11111111111114" y="400.00000000000006"></rect><rect width="44.44444444444444" height="44.44444444444444" x="355.5555555555556" y="400.00000000000006"></rect><rect width="44.44444444444444" height="44.44444444444444" x="400.00000000000006" y="400.00000000000006"></rect><rect width="44.44444444444444" height="44.44444444444444" x="444.4444444444445" y="400.00000000000006"></rect><rect width="44.44444444444444" height="44.44444444444444" x="488.88888888888897" y="400.00000000000006"></rect><rect width="44.44444444444444" height="44.44444444444444" x="533.3333333333334" y="400.00000000000006"></rect><rect width="44.44444444444444" height="44.44444444444444" x="577.7777777777778" y="400.00000000000006"></rect><rect width="44.44444444444444" height="44.44444444444444" x="622.2222222222223" y="400.00000000000006"></rect><rect width="44.44444444444444" height="44.44444444444444" x="666.6666666666667" y="400.00000000000006"></rect><rect width="44.44444444444444" height="44.44444444444444" x="711.1111111111112" y="400.00000000000006"></rect><rect width="44.44444444444444" height="44.44444444444444" x="755.5555555555557" y="400.00000000000006"></rect><rect width="44.44444444444444" height="44.44444444444444" x="800.0000000000001" y="400.00000000000006"></rect><rect width="44.44444444444444" height="44.44444444444444" x="0" y="444.4444444444445"></rect><rect width="44.44444444444444" height="44.44444444444444" x="44.44444444444444" y="444.4444444444445"></rect><rect width="44.44444444444444" height="44.44444444444444" x="88.88888888888889" y="444.4444444444445"></rect><rect width="44.44444444444444" height="44.44444444444444" x="133.33333333333331" y="444.4444444444445"></rect><rect width="44.44444444444444" height="44.44444444444444" x="177.77777777777777" y="444.4444444444445"></rect><rect width="44.44444444444444" height="44.44444444444444" x="222.22222222222223" y="444.4444444444445"></rect><rect width="44.44444444444444" height="44.44444444444444" x="266.6666666666667" y="444.4444444444445"></rect><rect width="44.44444444444444" height="44.44444444444444" x="311.11111111111114" y="444.4444444444445"></rect><rect width="44.44444444444444" height="44.44444444444444" x="355.5555555555556" y="444.4444444444445"></rect><rect width="44.44444444444444" height="44.44444444444444" x="400.00000000000006" y="444.4444444444445"></rect><rect width="44.44444444444444" height="44.44444444444444" x="444.4444444444445" y="444.4444444444445"></rect><rect width="44.44444444444444" height="44.44444444444444" x="488.88888888888897" y="444.4444444444445"></rect><rect width="44.44444444444444" height="44.44444444444444" x="533.3333333333334" y="444.4444444444445"></rect><rect width="44.44444444444444" height="44.44444444444444" x="577.7777777777778" y="444.4444444444445"></rect><rect width="44.44444444444444" height="44.44444444444444" x="622.2222222222223" y="444.4444444444445"></rect><rect width="44.44444444444444" height="44.44444444444444" x="666.6666666666667" y="444.4444444444445"></rect><rect width="44.44444444444444" height="44.44444444444444" x="711.1111111111112" y="444.4444444444445"></rect><rect width="44.44444444444444" height="44.44444444444444" x="755.5555555555557" y="444.4444444444445"></rect><rect width="44.44444444444444" height="44.44444444444444" x="800.0000000000001" y="444.4444444444445"></rect><rect width="44.44444444444444" height="44.44444444444444" x="0" y="488.88888888888897"></rect><rect width="44.44444444444444" height="44.44444444444444" x="44.44444444444444" y="488.88888888888897"></rect><rect width="44.44444444444444" height="44.44444444444444" x="88.88888888888889" y="488.88888888888897"></rect><rect width="44.44444444444444" height="44.44444444444444" x="133.33333333333331" y="488.88888888888897"></rect><rect width="44.44444444444444" height="44.44444444444444" x="177.77777777777777" y="488.88888888888897"></rect><rect width="44.44444444444444" height="44.44444444444444" x="222.22222222222223" y="488.88888888888897"></rect><rect width="44.44444444444444" height="44.44444444444444" x="266.6666666666667" y="488.88888888888897"></rect><rect width="44.44444444444444" height="44.44444444444444" x="311.11111111111114" y="488.88888888888897"></rect><rect width="44.44444444444444" height="44.44444444444444" x="355.5555555555556" y="488.88888888888897"></rect><rect width="44.44444444444444" height="44.44444444444444" x="400.00000000000006" y="488.88888888888897"></rect><rect width="44.44444444444444" height="44.44444444444444" x="444.4444444444445" y="488.88888888888897"></rect><rect width="44.44444444444444" height="44.44444444444444" x="488.88888888888897" y="488.88888888888897"></rect><rect width="44.44444444444444" height="44.44444444444444" x="533.3333333333334" y="488.88888888888897"></rect><rect width="44.44444444444444" height="44.44444444444444" x="577.7777777777778" y="488.88888888888897"></rect><rect width="44.44444444444444" height="44.44444444444444" x="622.2222222222223" y="488.88888888888897"></rect><rect width="44.44444444444444" height="44.44444444444444" x="666.6666666666667" y="488.88888888888897"></rect><rect width="44.44444444444444" height="44.44444444444444" x="711.1111111111112" y="488.88888888888897"></rect><rect width="44.44444444444444" height="44.44444444444444" x="755.5555555555557" y="488.88888888888897"></rect><rect width="44.44444444444444" height="44.44444444444444" x="800.0000000000001" y="488.88888888888897"></rect><rect width="44.44444444444444" height="44.44444444444444" x="0" y="533.3333333333334"></rect><rect width="44.44444444444444" height="44.44444444444444" x="44.44444444444444" y="533.3333333333334"></rect><rect width="44.44444444444444" height="44.44444444444444" x="88.88888888888889" y="533.3333333333334"></rect><rect width="44.44444444444444" height="44.44444444444444" x="133.33333333333331" y="533.3333333333334"></rect><rect width="44.44444444444444" height="44.44444444444444" x="177.77777777777777" y="533.3333333333334"></rect><rect width="44.44444444444444" height="44.44444444444444" x="222.22222222222223" y="533.3333333333334"></rect><rect width="44.44444444444444" height="44.44444444444444" x="266.6666666666667" y="533.3333333333334"></rect><rect width="44.44444444444444" height="44.44444444444444" x="311.11111111111114" y="533.3333333333334"></rect><rect width="44.44444444444444" height="44.44444444444444" x="355.5555555555556" y="533.3333333333334"></rect><rect width="44.44444444444444" height="44.44444444444444" x="400.00000000000006" y="533.3333333333334"></rect><rect width="44.44444444444444" height="44.44444444444444" x="444.4444444444445" y="533.3333333333334"></rect><rect width="44.44444444444444" height="44.44444444444444" x="488.88888888888897" y="533.3333333333334"></rect><rect width="44.44444444444444" height="44.44444444444444" x="533.3333333333334" y="533.3333333333334"></rect><rect width="44.44444444444444" height="44.44444444444444" x="577.7777777777778" y="533.3333333333334"></rect><rect width="44.44444444444444" height="44.44444444444444" x="622.2222222222223" y="533.3333333333334"></rect><rect width="44.44444444444444" height="44.44444444444444" x="666.6666666666667" y="533.3333333333334"></rect><rect width="44.44444444444444" height="44.44444444444444" x="711.1111111111112" y="533.3333333333334"></rect><rect width="44.44444444444444" height="44.44444444444444" x="755.5555555555557" y="533.3333333333334"></rect><rect width="44.44444444444444" height="44.44444444444444" x="800.0000000000001" y="533.3333333333334"></rect><rect width="44.44444444444444" height="44.44444444444444" x="0" y="577.7777777777778"></rect><rect width="44.44444444444444" height="44.44444444444444" x="44.44444444444444" y="577.7777777777778"></rect><rect width="44.44444444444444" height="44.44444444444444" x="88.88888888888889" y="577.7777777777778"></rect><rect width="44.44444444444444" height="44.44444444444444" x="133.33333333333331" y="577.7777777777778"></rect><rect width="44.44444444444444" height="44.44444444444444" x="177.77777777777777" y="577.7777777777778"></rect><rect width="44.44444444444444" height="44.44444444444444" x="222.22222222222223" y="577.7777777777778"></rect><rect width="44.44444444444444" height="44.44444444444444" x="266.6666666666667" y="577.7777777777778"></rect><rect width="44.44444444444444" height="44.44444444444444" x="311.11111111111114" y="577.7777777777778"></rect><rect width="44.44444444444444" height="44.44444444444444" x="355.5555555555556" y="577.7777777777778"></rect><rect width="44.44444444444444" height="44.44444444444444" x="400.00000000000006" y="577.7777777777778"></rect><rect width="44.44444444444444" height="44.44444444444444" x="444.4444444444445" y="577.7777777777778"></rect><rect width="44.44444444444444" height="44.44444444444444" x="488.88888888888897" y="577.7777777777778"></rect><rect width="44.44444444444444" height="44.44444444444444" x="533.3333333333334" y="577.7777777777778"></rect><rect width="44.44444444444444" height="44.44444444444444" x="577.7777777777778" y="577.7777777777778"></rect><rect width="44.44444444444444" height="44.44444444444444" x="622.2222222222223" y="577.7777777777778"></rect><rect width="44.44444444444444" height="44.44444444444444" x="666.6666666666667" y="577.7777777777778"></rect><rect width="44.44444444444444" height="44.44444444444444" x="711.1111111111112" y="577.7777777777778"></rect><rect width="44.44444444444444" height="44.44444444444444" x="755.5555555555557" y="577.7777777777778"></rect><rect width="44.44444444444444" height="44.44444444444444" x="800.0000000000001" y="577.7777777777778"></rect><rect width="44.44444444444444" height="44.44444444444444" x="0" y="622.2222222222223"></rect><rect width="44.44444444444444" height="44.44444444444444" x="44.44444444444444" y="622.2222222222223"></rect><rect width="44.44444444444444" height="44.44444444444444" x="88.88888888888889" y="622.2222222222223"></rect><rect width="44.44444444444444" height="44.44444444444444" x="133.33333333333331" y="622.2222222222223"></rect><rect width="44.44444444444444" height="44.44444444444444" x="177.77777777777777" y="622.2222222222223"></rect><rect width="44.44444444444444" height="44.44444444444444" x="222.22222222222223" y="622.2222222222223"></rect><rect width="44.44444444444444" height="44.44444444444444" x="266.6666666666667" y="622.2222222222223"></rect><rect width="44.44444444444444" height="44.44444444444444" x="311.11111111111114" y="622.2222222222223"></rect><rect width="44.44444444444444" height="44.44444444444444" x="355.5555555555556" y="622.2222222222223"></rect><rect width="44.44444444444444" height="44.44444444444444" x="400.00000000000006" y="622.2222222222223"></rect><rect width="44.44444444444444" height="44.44444444444444" x="444.4444444444445" y="622.2222222222223"></rect><rect width="44.44444444444444" height="44.44444444444444" x="488.88888888888897" y="622.2222222222223"></rect><rect width="44.44444444444444" height="44.44444444444444" x="533.3333333333334" y="622.2222222222223"></rect><rect width="44.44444444444444" height="44.44444444444444" x="577.7777777777778" y="622.2222222222223"></rect><rect width="44.44444444444444" height="44.44444444444444" x="622.2222222222223" y="622.2222222222223"></rect><rect width="44.44444444444444" height="44.44444444444444" x="666.6666666666667" y="622.2222222222223"></rect><rect width="44.44444444444444" height="44.44444444444444" x="711.1111111111112" y="622.2222222222223"></rect><rect width="44.44444444444444" height="44.44444444444444" x="755.5555555555557" y="622.2222222222223"></rect><rect width="44.44444444444444" height="44.44444444444444" x="800.0000000000001" y="622.2222222222223"></rect><rect width="44.44444444444444" height="44.44444444444444" x="0" y="666.6666666666667"></rect><rect width="44.44444444444444" height="44.44444444444444" x="44.44444444444444" y="666.6666666666667"></rect><rect width="44.44444444444444" height="44.44444444444444" x="88.88888888888889" y="666.6666666666667"></rect><rect width="44.44444444444444" height="44.44444444444444" x="133.33333333333331" y="666.6666666666667"></rect><rect width="44.44444444444444" height="44.44444444444444" x="177.77777777777777" y="666.6666666666667"></rect><rect width="44.44444444444444" height="44.44444444444444" x="222.22222222222223" y="666.6666666666667"></rect><rect width="44.44444444444444" height="44.44444444444444" x="266.6666666666667" y="666.6666666666667"></rect><rect width="44.44444444444444" height="44.44444444444444" x="311.11111111111114" y="666.6666666666667"></rect><rect width="44.44444444444444" height="44.44444444444444" x="355.5555555555556" y="666.6666666666667"></rect><rect width="44.44444444444444" height="44.44444444444444" x="400.00000000000006" y="666.6666666666667"></rect><rect width="44.44444444444444" height="44.44444444444444" x="444.4444444444445" y="666.6666666666667"></rect><rect width="44.44444444444444" height="44.44444444444444" x="488.88888888888897" y="666.6666666666667"></rect><rect width="44.44444444444444" height="44.44444444444444" x="533.3333333333334" y="666.6666666666667"></rect><rect width="44.44444444444444" height="44.44444444444444" x="577.7777777777778" y="666.6666666666667"></rect><rect width="44.44444444444444" height="44.44444444444444" x="622.2222222222223" y="666.6666666666667"></rect><rect width="44.44444444444444" height="44.44444444444444" x="666.6666666666667" y="666.6666666666667"></rect><rect width="44.44444444444444" height="44.44444444444444" x="711.1111111111112" y="666.6666666666667"></rect><rect width="44.44444444444444" height="44.44444444444444" x="755.5555555555557" y="666.6666666666667"></rect><rect width="44.44444444444444" height="44.44444444444444" x="800.0000000000001" y="666.6666666666667"></rect><rect width="44.44444444444444" height="44.44444444444444" x="0" y="711.1111111111112"></rect><rect width="44.44444444444444" height="44.44444444444444" x="44.44444444444444" y="711.1111111111112"></rect><rect width="44.44444444444444" height="44.44444444444444" x="88.88888888888889" y="711.1111111111112"></rect><rect width="44.44444444444444" height="44.44444444444444" x="133.33333333333331" y="711.1111111111112"></rect><rect width="44.44444444444444" height="44.44444444444444" x="177.77777777777777" y="711.1111111111112"></rect><rect width="44.44444444444444" height="44.44444444444444" x="222.22222222222223" y="711.1111111111112"></rect><rect width="44.44444444444444" height="44.44444444444444" x="266.6666666666667" y="711.1111111111112"></rect><rect width="44.44444444444444" height="44.44444444444444" x="311.11111111111114" y="711.1111111111112"></rect><rect width="44.44444444444444" height="44.44444444444444" x="355.5555555555556" y="711.1111111111112"></rect><rect width="44.44444444444444" height="44.44444444444444" x="400.00000000000006" y="711.1111111111112"></rect><rect width="44.44444444444444" height="44.44444444444444" x="444.4444444444445" y="711.1111111111112"></rect><rect width="44.44444444444444" height="44.44444444444444" x="488.88888888888897" y="711.1111111111112"></rect><rect width="44.44444444444444" height="44.44444444444444" x="533.3333333333334" y="711.1111111111112"></rect><rect width="44.44444444444444" height="44.44444444444444" x="577.7777777777778" y="711.1111111111112"></rect><rect width="44.44444444444444" height="44.44444444444444" x="622.2222222222223" y="711.1111111111112"></rect><rect width="44.44444444444444" height="44.44444444444444" x="666.6666666666667" y="711.1111111111112"></rect><rect width="44.44444444444444" height="44.44444444444444" x="711.1111111111112" y="711.1111111111112"></rect><rect width="44.44444444444444" height="44.44444444444444" x="755.5555555555557" y="711.1111111111112"></rect><rect width="44.44444444444444" height="44.44444444444444" x="800.0000000000001" y="711.1111111111112"></rect><rect width="44.44444444444444" height="44.44444444444444" x="0" y="755.5555555555557"></rect><rect width="44.44444444444444" height="44.44444444444444" x="44.44444444444444" y="755.5555555555557"></rect><rect width="44.44444444444444" height="44.44444444444444" x="88.88888888888889" y="755.5555555555557"></rect><rect width="44.44444444444444" height="44.44444444444444" x="133.33333333333331" y="755.5555555555557"></rect><rect width="44.44444444444444" height="44.44444444444444" x="177.77777777777777" y="755.5555555555557"></rect><rect width="44.44444444444444" height="44.44444444444444" x="222.22222222222223" y="755.5555555555557"></rect><rect width="44.44444444444444" height="44.44444444444444" x="266.6666666666667" y="755.5555555555557"></rect><rect width="44.44444444444444" height="44.44444444444444" x="311.11111111111114" y="755.5555555555557"></rect><rect width="44.44444444444444" height="44.44444444444444" x="355.5555555555556" y="755.5555555555557"></rect><rect width="44.44444444444444" height="44.44444444444444" x="400.00000000000006" y="755.5555555555557"></rect><rect width="44.44444444444444" height="44.44444444444444" x="444.4444444444445" y="755.5555555555557"></rect><rect width="44.44444444444444" height="44.44444444444444" x="488.88888888888897" y="755.5555555555557"></rect><rect width="44.44444444444444" height="44.44444444444444" x="533.3333333333334" y="755.5555555555557"></rect><rect width="44.44444444444444" height="44.44444444444444" x="577.7777777777778" y="755.5555555555557"></rect><rect width="44.44444444444444" height="44.44444444444444" x="622.2222222222223" y="755.5555555555557"></rect><rect width="44.44444444444444" height="44.44444444444444" x="666.6666666666667" y="755.5555555555557"></rect><rect width="44.44444444444444" height="44.44444444444444" x="711.1111111111112" y="755.5555555555557"></rect><rect width="44.44444444444444" height="44.44444444444444" x="755.5555555555557" y="755.5555555555557"></rect><rect width="44.44444444444444" height="44.44444444444444" x="800.0000000000001" y="755.5555555555557"></rect><rect width="44.44444444444444" height="44.44444444444444" x="0" y="800.0000000000001"></rect><rect width="44.44444444444444" height="44.44444444444444" x="44.44444444444444" y="800.0000000000001"></rect><rect width="44.44444444444444" height="44.44444444444444" x="88.88888888888889" y="800.0000000000001"></rect><rect width="44.44444444444444" height="44.44444444444444" x="133.33333333333331" y="800.0000000000001"></rect><rect width="44.44444444444444" height="44.44444444444444" x="177.77777777777777" y="800.0000000000001"></rect><rect width="44.44444444444444" height="44.44444444444444" x="222.22222222222223" y="800.0000000000001"></rect><rect width="44.44444444444444" height="44.44444444444444" x="266.6666666666667" y="800.0000000000001"></rect><rect width="44.44444444444444" height="44.44444444444444" x="311.11111111111114" y="800.0000000000001"></rect><rect width="44.44444444444444" height="44.44444444444444" x="355.5555555555556" y="800.0000000000001"></rect><rect width="44.44444444444444" height="44.44444444444444" x="400.00000000000006" y="800.0000000000001"></rect><rect width="44.44444444444444" height="44.44444444444444" x="444.4444444444445" y="800.0000000000001"></rect><rect width="44.44444444444444" height="44.44444444444444" x="488.88888888888897" y="800.0000000000001"></rect><rect width="44.44444444444444" height="44.44444444444444" x="533.3333333333334" y="800.0000000000001"></rect><rect width="44.44444444444444" height="44.44444444444444" x="577.7777777777778" y="800.0000000000001"></rect><rect width="44.44444444444444" height="44.44444444444444" x="622.2222222222223" y="800.0000000000001"></rect><rect width="44.44444444444444" height="44.44444444444444" x="666.6666666666667" y="800.0000000000001"></rect><rect width="44.44444444444444" height="44.44444444444444" x="711.1111111111112" y="800.0000000000001"></rect><rect width="44.44444444444444" height="44.44444444444444" x="755.5555555555557" y="800.0000000000001"></rect><rect width="44.44444444444444" height="44.44444444444444" x="800.0000000000001" y="800.0000000000001"></rect></g></svg><svg viewBox="0 0 500 400" fill="none" xmlns="http://www.w3.org/2000/svg" class="z-10 scale-110"><g opacity="0.6" filter="url(#filter0_f_549_789)"><path d="M332.568 11.5661C335.191 12.8667 337.221 14.8896 338.326 17.3044C339.431 19.7192 339.546 22.3831 338.652 24.8609L290.378 159.001H379.448C382.066 159 384.626 159.655 386.814 160.884C389.001 162.113 390.72 163.864 391.757 165.919C392.795 167.974 393.106 170.244 392.653 172.448C392.199 174.653 391 176.696 389.205 178.324L174.772 373.162C172.697 375.049 169.936 376.279 166.939 376.652C163.942 377.025 160.886 376.519 158.268 375.216C155.65 373.913 153.626 371.891 152.525 369.478C151.423 367.065 151.31 364.405 152.203 361.93L200.477 227.767H111.407C108.79 227.768 106.229 227.113 104.042 225.884C101.854 224.655 100.136 222.905 99.098 220.849C98.0604 218.794 97.7492 216.524 98.2028 214.32C98.6564 212.115 99.8551 210.073 101.651 208.444L316.083 13.6062C318.156 11.722 320.912 10.4927 323.905 10.1181C326.898 9.74357 329.951 10.2687 332.568 11.5661Z" fill="url(#paint0_linear_549_789)"></path><path d="M333.012 10.6702C335.818 12.0615 338.025 14.2432 339.236 16.8882C340.449 19.5388 340.577 22.4738 339.593 25.2001L339.593 25.1996L338.652 24.8609L339.593 25.2004L291.801 158.001H379.448C382.229 158 384.96 158.695 387.304 160.012C389.648 161.33 391.515 163.22 392.65 165.468C393.787 167.719 394.132 170.219 393.632 172.65C393.132 175.078 391.817 177.305 389.877 179.064L333.012 10.6702ZM333.012 10.6702C330.218 9.28497 326.967 8.72711 323.781 9.12586C320.6 9.52391 317.647 10.8325 315.411 12.8661C315.411 12.8662 315.411 12.8662 315.41 12.8663L100.979 207.703L333.012 10.6702ZM175.445 373.902L389.877 179.065L100.978 207.704C99.0386 209.463 97.723 211.69 97.2233 214.118C96.7231 216.549 97.0685 219.049 98.2054 221.3C99.3405 223.548 101.208 225.438 103.552 226.756C105.896 228.073 108.626 228.768 111.407 228.767C111.407 228.767 111.408 228.767 111.408 228.767H199.055L151.263 361.591C150.28 364.314 150.406 367.245 151.615 369.893C152.821 372.536 155.022 374.718 157.823 376.111C160.622 377.505 163.877 378.041 167.063 377.644C170.248 377.248 173.205 375.938 175.445 373.902C175.445 373.902 175.445 373.902 175.445 373.902Z" stroke="#F4EB1F" stroke-width="2"></path></g><path d="M296.177 74.8582C294.962 71.7612 292.733 69.1702 289.855 67.5056C287.026 65.8688 283.685 65.1823 280.36 65.6679C277.081 66.1468 274.058 67.7185 271.783 70.1312C271.783 70.1318 271.782 70.1324 271.782 70.133L156.538 192.33C156.537 192.331 156.537 192.331 156.537 192.331C154.566 194.418 153.249 197.036 152.75 199.864C152.252 202.693 152.594 205.605 153.734 208.24C154.874 210.876 156.762 213.118 159.162 214.691C161.56 216.264 164.366 217.101 167.233 217.101C167.234 217.101 167.235 217.101 167.236 217.101H204.945L181.995 291.533C181.994 291.534 181.994 291.536 181.993 291.537C181.993 291.538 181.993 291.538 181.993 291.539C181.013 294.712 181.138 298.123 182.348 301.215C183.558 304.31 185.782 306.9 188.653 308.568C191.524 310.235 194.874 310.882 198.158 310.405C201.442 309.928 204.471 308.354 206.748 305.937L321.992 183.74C321.993 183.739 321.994 183.738 321.996 183.736C323.965 181.65 325.281 179.033 325.779 176.207C326.278 173.378 325.936 170.466 324.795 167.831C323.655 165.195 321.768 162.953 319.368 161.379C316.969 159.806 314.163 158.969 311.296 158.97C311.295 158.97 311.294 158.97 311.293 158.97H273.586L296.535 84.5516C296.536 84.5498 296.536 84.548 296.537 84.5462C297.518 81.3692 297.391 77.9537 296.177 74.8582Z" stroke="#FED10B" stroke-opacity="0.1" stroke-width="15"></path><mask id="path-4-outside-1_549_789" maskUnits="userSpaceOnUse" x="130.027" y="43.0134" width="219" height="291" fill="black"><rect fill="white" x="130.027" y="43.0134" width="219" height="291"></rect><path d="M286.1 73.9974C287.51 74.8131 288.601 76.0819 289.195 77.5965C289.789 79.1111 289.85 80.7819 289.37 82.336L263.424 166.47H311.296C312.703 166.469 314.079 166.88 315.255 167.651C316.431 168.422 317.354 169.52 317.912 170.809C318.47 172.098 318.637 173.521 318.393 174.904C318.149 176.287 317.505 177.568 316.54 178.59L201.29 300.794C200.175 301.977 198.691 302.749 197.08 302.983C195.469 303.217 193.826 302.899 192.419 302.082C191.013 301.265 189.924 299.996 189.332 298.483C188.741 296.97 188.68 295.301 189.16 293.749L215.105 209.601H167.233C165.827 209.601 164.45 209.191 163.275 208.42C162.099 207.649 161.175 206.551 160.617 205.262C160.06 203.973 159.893 202.549 160.136 201.166C160.38 199.784 161.024 198.503 161.989 197.481L277.24 75.277C278.354 74.0952 279.835 73.3241 281.444 73.0892C283.052 72.8543 284.693 73.1837 286.1 73.9974Z"></path></mask><path d="M286.1 73.9974L271.076 99.9643L271.076 99.9648L286.1 73.9974ZM289.37 82.336L260.709 73.4736L260.705 73.4845L260.702 73.4953L289.37 82.336ZM263.424 166.47L234.756 157.629L222.778 196.47H263.424V166.47ZM311.296 166.47V196.47H311.308L311.296 166.47ZM316.54 178.59L294.733 157.987L294.724 157.997L294.715 158.007L316.54 178.59ZM201.29 300.794L179.465 280.211L179.456 280.22L201.29 300.794ZM189.16 293.749L217.82 302.614L217.824 302.601L217.828 302.588L189.16 293.749ZM215.105 209.601L243.774 218.44L255.749 179.601H215.105V209.601ZM167.233 209.601V179.601H167.221L167.233 209.601ZM161.989 197.481L183.797 218.083L183.806 218.074L183.815 218.064L161.989 197.481ZM277.24 75.277L299.065 95.8601L299.072 95.8527L277.24 75.277ZM271.076 99.9648C266.617 97.385 263.154 93.3647 261.266 88.5496L317.124 66.6434C314.047 58.7992 308.402 52.2412 301.123 48.0301L271.076 99.9648ZM261.266 88.5496C259.377 83.7335 259.18 78.4173 260.709 73.4736L318.031 91.1985C320.521 83.1465 320.2 74.4886 317.124 66.6434L261.266 88.5496ZM260.702 73.4953L234.756 157.629L292.092 175.311L318.038 91.1768L260.702 73.4953ZM263.424 196.47H311.296V136.47H263.424V196.47ZM311.308 196.47C306.869 196.472 302.522 195.176 298.803 192.737L331.707 142.565C325.637 138.583 318.537 136.467 311.284 136.47L311.308 196.47ZM298.803 192.737C295.083 190.298 292.151 186.818 290.379 182.722L345.445 158.896C342.557 152.221 337.778 146.546 331.707 142.565L298.803 192.737ZM290.379 182.722C288.606 178.625 288.073 174.095 288.849 169.695L347.937 180.114C349.201 172.948 348.333 165.571 345.445 158.896L290.379 182.722ZM288.849 169.695C289.625 165.295 291.674 161.226 294.733 157.987L338.347 199.192C343.337 193.91 346.674 187.279 347.937 180.114L288.849 169.695ZM294.715 158.007L179.465 280.211L223.115 321.377L338.365 199.173L294.715 158.007ZM179.456 280.22C182.991 276.469 187.684 274.033 192.768 273.294L201.392 332.671C209.697 331.465 217.359 327.485 223.123 321.368L179.456 280.22ZM192.768 273.294C197.85 272.556 203.037 273.556 207.486 276.14L177.353 328.024C184.615 332.242 193.088 333.877 201.392 332.671L192.768 273.294ZM207.486 276.14C211.935 278.724 215.389 282.743 217.271 287.554L161.394 309.412C164.46 317.249 170.09 323.806 177.353 328.024L207.486 276.14ZM217.271 287.554C219.153 292.366 219.347 297.676 217.82 302.614L160.499 284.884C158.012 292.927 158.328 301.574 161.394 309.412L217.271 287.554ZM217.828 302.588L243.774 218.44L186.437 200.761L160.492 284.91L217.828 302.588ZM215.105 179.601H167.233V239.601H215.105V179.601ZM167.221 179.601C171.661 179.599 176.008 180.894 179.727 183.333L146.822 233.506C152.893 237.487 159.992 239.604 167.245 239.601L167.221 179.601ZM179.727 183.333C183.447 185.773 186.378 189.252 188.151 193.349L133.084 217.175C135.972 223.85 140.751 229.524 146.822 233.506L179.727 183.333ZM188.151 193.349C189.924 197.446 190.456 201.976 189.681 206.376L130.592 195.957C129.329 203.123 130.196 210.5 133.084 217.175L188.151 193.349ZM189.681 206.376C188.905 210.776 186.856 214.845 183.797 218.083L140.182 176.879C135.193 182.16 131.856 188.792 130.592 195.957L189.681 206.376ZM183.815 218.064L299.065 95.8601L255.415 54.6938L140.164 176.898L183.815 218.064ZM299.072 95.8527C295.542 99.5984 290.855 102.033 285.779 102.774L277.108 43.4041C268.815 44.6153 261.165 48.5919 255.408 54.7012L299.072 95.8527ZM285.779 102.774C280.52 103.542 275.36 102.443 271.076 99.9643L301.124 48.0306C294.027 43.9242 285.585 42.1662 277.108 43.4041L285.779 102.774Z" fill="#FED10B" fill-opacity="0.1" mask="url(#path-4-outside-1_549_789)"></path><path d="M286.1 73.9974C287.51 74.8132 288.601 76.0819 289.195 77.5965C289.789 79.1111 289.85 80.7819 289.37 82.3361L263.424 166.47H311.296C312.703 166.469 314.079 166.88 315.255 167.651C316.431 168.422 317.354 169.52 317.912 170.809C318.47 172.098 318.637 173.521 318.393 174.904C318.149 176.287 317.505 177.568 316.54 178.59L201.29 300.794C200.175 301.977 198.691 302.749 197.08 302.983C195.469 303.217 193.826 302.899 192.419 302.082C191.013 301.265 189.924 299.997 189.332 298.483C188.741 296.97 188.68 295.301 189.16 293.749L215.105 209.601H167.233C165.827 209.601 164.45 209.191 163.275 208.42C162.099 207.649 161.175 206.551 160.617 205.262C160.06 203.973 159.893 202.549 160.136 201.166C160.38 199.784 161.024 198.503 161.989 197.481L277.24 75.277C278.354 74.0952 279.835 73.3241 281.444 73.0892C283.052 72.8543 284.693 73.1837 286.1 73.9974Z" fill="url(#paint1_linear_549_789)" stroke="#F4EB1F" stroke-width="3"></path><defs><filter id="filter0_f_549_789" x="-7" y="-95" width="504.855" height="576.771" filterUnits="userSpaceOnUse" color-interpolation-filters="sRGB"><feFlood flood-opacity="0" result="BackgroundImageFix"></feFlood><feBlend mode="normal" in="SourceGraphic" in2="BackgroundImageFix" result="shape"></feBlend><feGaussianBlur stdDeviation="51.5" result="effect1_foregroundBlur_549_789"></feGaussianBlur></filter><linearGradient id="paint0_linear_549_789" x1="214.325" y1="178.688" x2="290.195" y2="266.488" gradientUnits="userSpaceOnUse"><stop stop-color="#FED10B"></stop><stop offset="1" stop-color="#FFA722"></stop></linearGradient><linearGradient id="paint1_linear_549_789" x1="222.548" y1="178.818" x2="270.641" y2="226.51" gradientUnits="userSpaceOnUse"><stop stop-color="#FED10B"></stop><stop offset="1" stop-color="#FFA722"></stop></linearGradient></defs><svg viewBox="0 0 500 400" fill="none" xmlns="http://www.w3.org/2000/svg" class="absolute z-10 opacity-0 blur-md transition hover:animate-ping hover:opacity-60 hover:delay-500"><g opacity="0.6" filter="url(#filter0_f_549_789)"><path d="M332.568 11.5661C335.191 12.8667 337.221 14.8896 338.326 17.3044C339.431 19.7192 339.546 22.3831 338.652 24.8609L290.378 159.001H379.448C382.066 159 384.626 159.655 386.814 160.884C389.001 162.113 390.72 163.864 391.757 165.919C392.795 167.974 393.106 170.244 392.653 172.448C392.199 174.653 391 176.696 389.205 178.324L174.772 373.162C172.697 375.049 169.936 376.279 166.939 376.652C163.942 377.025 160.886 376.519 158.268 375.216C155.65 373.913 153.626 371.891 152.525 369.478C151.423 367.065 151.31 364.405 152.203 361.93L200.477 227.767H111.407C108.79 227.768 106.229 227.113 104.042 225.884C101.854 224.655 100.136 222.905 99.098 220.849C98.0604 218.794 97.7492 216.524 98.2028 214.32C98.6564 212.115 99.8551 210.073 101.651 208.444L316.083 13.6062C318.156 11.722 320.912 10.4927 323.905 10.1181C326.898 9.74357 329.951 10.2687 332.568 11.5661Z" fill="url(#paint0_linear_549_789)"></path><path d="M333.012 10.6702C335.818 12.0615 338.025 14.2432 339.236 16.8882C340.449 19.5388 340.577 22.4738 339.593 25.2001L339.593 25.1996L338.652 24.8609L339.593 25.2004L291.801 158.001H379.448C382.229 158 384.96 158.695 387.304 160.012C389.648 161.33 391.515 163.22 392.65 165.468C393.787 167.719 394.132 170.219 393.632 172.65C393.132 175.078 391.817 177.305 389.877 179.064L333.012 10.6702ZM333.012 10.6702C330.218 9.28497 326.967 8.72711 323.781 9.12586C320.6 9.52391 317.647 10.8325 315.411 12.8661C315.411 12.8662 315.411 12.8662 315.41 12.8663L100.979 207.703L333.012 10.6702ZM175.445 373.902L389.877 179.065L100.978 207.704C99.0386 209.463 97.723 211.69 97.2233 214.118C96.7231 216.549 97.0685 219.049 98.2054 221.3C99.3405 223.548 101.208 225.438 103.552 226.756C105.896 228.073 108.626 228.768 111.407 228.767C111.407 228.767 111.408 228.767 111.408 228.767H199.055L151.263 361.591C150.28 364.314 150.406 367.245 151.615 369.893C152.821 372.536 155.022 374.718 157.823 376.111C160.622 377.505 163.877 378.041 167.063 377.644C170.248 377.248 173.205 375.938 175.445 373.902C175.445 373.902 175.445 373.902 175.445 373.902Z" stroke="#F4EB1F" stroke-width="2"></path></g><path d="M296.177 74.8582C294.962 71.7612 292.733 69.1702 289.855 67.5056C287.026 65.8688 283.685 65.1823 280.36 65.6679C277.081 66.1468 274.058 67.7185 271.783 70.1312C271.783 70.1318 271.782 70.1324 271.782 70.133L156.538 192.33C156.537 192.331 156.537 192.331 156.537 192.331C154.566 194.418 153.249 197.036 152.75 199.864C152.252 202.693 152.594 205.605 153.734 208.24C154.874 210.876 156.762 213.118 159.162 214.691C161.56 216.264 164.366 217.101 167.233 217.101C167.234 217.101 167.235 217.101 167.236 217.101H204.945L181.995 291.533C181.994 291.534 181.994 291.536 181.993 291.537C181.993 291.538 181.993 291.538 181.993 291.539C181.013 294.712 181.138 298.123 182.348 301.215C183.558 304.31 185.782 306.9 188.653 308.568C191.524 310.235 194.874 310.882 198.158 310.405C201.442 309.928 204.471 308.354 206.748 305.937L321.992 183.74C321.993 183.739 321.994 183.738 321.996 183.736C323.965 181.65 325.281 179.033 325.779 176.207C326.278 173.378 325.936 170.466 324.795 167.831C323.655 165.195 321.768 162.953 319.368 161.379C316.969 159.806 314.163 158.969 311.296 158.97C311.295 158.97 311.294 158.97 311.293 158.97H273.586L296.535 84.5516C296.536 84.5498 296.536 84.548 296.537 84.5462C297.518 81.3692 297.391 77.9537 296.177 74.8582Z" stroke="#FED10B" stroke-opacity="0.1" stroke-width="15"></path><mask id="path-4-outside-1_549_789" maskUnits="userSpaceOnUse" x="130.027" y="43.0134" width="219" height="291" fill="black"><rect fill="white" x="130.027" y="43.0134" width="219" height="291"></rect><path d="M286.1 73.9974C287.51 74.8131 288.601 76.0819 289.195 77.5965C289.789 79.1111 289.85 80.7819 289.37 82.336L263.424 166.47H311.296C312.703 166.469 314.079 166.88 315.255 167.651C316.431 168.422 317.354 169.52 317.912 170.809C318.47 172.098 318.637 173.521 318.393 174.904C318.149 176.287 317.505 177.568 316.54 178.59L201.29 300.794C200.175 301.977 198.691 302.749 197.08 302.983C195.469 303.217 193.826 302.899 192.419 302.082C191.013 301.265 189.924 299.996 189.332 298.483C188.741 296.97 188.68 295.301 189.16 293.749L215.105 209.601H167.233C165.827 209.601 164.45 209.191 163.275 208.42C162.099 207.649 161.175 206.551 160.617 205.262C160.06 203.973 159.893 202.549 160.136 201.166C160.38 199.784 161.024 198.503 161.989 197.481L277.24 75.277C278.354 74.0952 279.835 73.3241 281.444 73.0892C283.052 72.8543 284.693 73.1837 286.1 73.9974Z"></path></mask><path d="M286.1 73.9974L271.076 99.9643L271.076 99.9648L286.1 73.9974ZM289.37 82.336L260.709 73.4736L260.705 73.4845L260.702 73.4953L289.37 82.336ZM263.424 166.47L234.756 157.629L222.778 196.47H263.424V166.47ZM311.296 166.47V196.47H311.308L311.296 166.47ZM316.54 178.59L294.733 157.987L294.724 157.997L294.715 158.007L316.54 178.59ZM201.29 300.794L179.465 280.211L179.456 280.22L201.29 300.794ZM189.16 293.749L217.82 302.614L217.824 302.601L217.828 302.588L189.16 293.749ZM215.105 209.601L243.774 218.44L255.749 179.601H215.105V209.601ZM167.233 209.601V179.601H167.221L167.233 209.601ZM161.989 197.481L183.797 218.083L183.806 218.074L183.815 218.064L161.989 197.481ZM277.24 75.277L299.065 95.8601L299.072 95.8527L277.24 75.277ZM271.076 99.9648C266.617 97.385 263.154 93.3647 261.266 88.5496L317.124 66.6434C314.047 58.7992 308.402 52.2412 301.123 48.0301L271.076 99.9648ZM261.266 88.5496C259.377 83.7335 259.18 78.4173 260.709 73.4736L318.031 91.1985C320.521 83.1465 320.2 74.4886 317.124 66.6434L261.266 88.5496ZM260.702 73.4953L234.756 157.629L292.092 175.311L318.038 91.1768L260.702 73.4953ZM263.424 196.47H311.296V136.47H263.424V196.47ZM311.308 196.47C306.869 196.472 302.522 195.176 298.803 192.737L331.707 142.565C325.637 138.583 318.537 136.467 311.284 136.47L311.308 196.47ZM298.803 192.737C295.083 190.298 292.151 186.818 290.379 182.722L345.445 158.896C342.557 152.221 337.778 146.546 331.707 142.565L298.803 192.737ZM290.379 182.722C288.606 178.625 288.073 174.095 288.849 169.695L347.937 180.114C349.201 172.948 348.333 165.571 345.445 158.896L290.379 182.722ZM288.849 169.695C289.625 165.295 291.674 161.226 294.733 157.987L338.347 199.192C343.337 193.91 346.674 187.279 347.937 180.114L288.849 169.695ZM294.715 158.007L179.465 280.211L223.115 321.377L338.365 199.173L294.715 158.007ZM179.456 280.22C182.991 276.469 187.684 274.033 192.768 273.294L201.392 332.671C209.697 331.465 217.359 327.485 223.123 321.368L179.456 280.22ZM192.768 273.294C197.85 272.556 203.037 273.556 207.486 276.14L177.353 328.024C184.615 332.242 193.088 333.877 201.392 332.671L192.768 273.294ZM207.486 276.14C211.935 278.724 215.389 282.743 217.271 287.554L161.394 309.412C164.46 317.249 170.09 323.806 177.353 328.024L207.486 276.14ZM217.271 287.554C219.153 292.366 219.347 297.676 217.82 302.614L160.499 284.884C158.012 292.927 158.328 301.574 161.394 309.412L217.271 287.554ZM217.828 302.588L243.774 218.44L186.437 200.761L160.492 284.91L217.828 302.588ZM215.105 179.601H167.233V239.601H215.105V179.601ZM167.221 179.601C171.661 179.599 176.008 180.894 179.727 183.333L146.822 233.506C152.893 237.487 159.992 239.604 167.245 239.601L167.221 179.601ZM179.727 183.333C183.447 185.773 186.378 189.252 188.151 193.349L133.084 217.175C135.972 223.85 140.751 229.524 146.822 233.506L179.727 183.333ZM188.151 193.349C189.924 197.446 190.456 201.976 189.681 206.376L130.592 195.957C129.329 203.123 130.196 210.5 133.084 217.175L188.151 193.349ZM189.681 206.376C188.905 210.776 186.856 214.845 183.797 218.083L140.182 176.879C135.193 182.16 131.856 188.792 130.592 195.957L189.681 206.376ZM183.815 218.064L299.065 95.8601L255.415 54.6938L140.164 176.898L183.815 218.064ZM299.072 95.8527C295.542 99.5984 290.855 102.033 285.779 102.774L277.108 43.4041C268.815 44.6153 261.165 48.5919 255.408 54.7012L299.072 95.8527ZM285.779 102.774C280.52 103.542 275.36 102.443 271.076 99.9643L301.124 48.0306C294.027 43.9242 285.585 42.1662 277.108 43.4041L285.779 102.774Z" fill="#FED10B" fill-opacity="0.1" mask="url(#path-4-outside-1_549_789)"></path><path d="M286.1 73.9974C287.51 74.8132 288.601 76.0819 289.195 77.5965C289.789 79.1111 289.85 80.7819 289.37 82.3361L263.424 166.47H311.296C312.703 166.469 314.079 166.88 315.255 167.651C316.431 168.422 317.354 169.52 317.912 170.809C318.47 172.098 318.637 173.521 318.393 174.904C318.149 176.287 317.505 177.568 316.54 178.59L201.29 300.794C200.175 301.977 198.691 302.749 197.08 302.983C195.469 303.217 193.826 302.899 192.419 302.082C191.013 301.265 189.924 299.997 189.332 298.483C188.741 296.97 188.68 295.301 189.16 293.749L215.105 209.601H167.233C165.827 209.601 164.45 209.191 163.275 208.42C162.099 207.649 161.175 206.551 160.617 205.262C160.06 203.973 159.893 202.549 160.136 201.166C160.38 199.784 161.024 198.503 161.989 197.481L277.24 75.277C278.354 74.0952 279.835 73.3241 281.444 73.0892C283.052 72.8543 284.693 73.1837 286.1 73.9974Z" fill="url(#paint1_linear_549_789)" stroke="#F4EB1F" stroke-width="3"></path><defs><filter id="filter0_f_549_789" x="-7" y="-95" width="504.855" height="576.771" filterUnits="userSpaceOnUse" color-interpolation-filters="sRGB"><feFlood flood-opacity="0" result="BackgroundImageFix"></feFlood><feBlend mode="normal" in="SourceGraphic" in2="BackgroundImageFix" result="shape"></feBlend><feGaussianBlur stdDeviation="51.5" result="effect1_foregroundBlur_549_789"></feGaussianBlur></filter><linearGradient id="paint0_linear_549_789" x1="214.325" y1="178.688" x2="290.195" y2="266.488" gradientUnits="userSpaceOnUse"><stop stop-color="#FED10B"></stop><stop offset="1" stop-color="#FFA722"></stop></linearGradient><linearGradient id="paint1_linear_549_789" x1="222.548" y1="178.818" x2="270.641" y2="226.51" gradientUnits="userSpaceOnUse"><stop stop-color="#FED10B"></stop><stop offset="1" stop-color="#FFA722"></stop></linearGradient></defs></svg></svg>